<svg xmlns="http://www.w3.org/2000/svg" viewBox="0 0 3034.18 1567.18"><defs><style>.cls-1{fill:none;stroke:#010101;stroke-miterlimit:10;}</style></defs><g id="Layer_2" data-name="Layer 2"><g id="Layer_1-2" data-name="Layer 1"><polyline class="cls-1" points="1918.7 1567.14 1898.48 1265.87 1806.61 1133.59 1086.15 898.29 931.56 494.24 913.38 220.01 924.16 216.43 947.03 493 1095.41 871.15 1824.96 1111.84 1909.06 1265.2 1929.39 1566.47 1940.07 1565.7 1919.74 1264.42 1847.18 1092.05 1107.44 843.01 962.39 491.66 932.74 215.73 943.91 217.44 977.85 490.42 1123.88 815.32 1871.88 1074.38 1930.42 1263.75 1950.75 1565.02 1961.33 1564.25 1941.1 1262.98 1912.49 1054.05 1651.39 849.24 1526.38 455.66 1497.47 134.97 1512.83 133.74 1541.54 454.43 1670.88 831.64 1939.93 1043.08 1951.79 1262.3 1972.01 1563.58 1982.69 1562.81 1962.37 1261.63 1966.73 1039.85 1690.53 815.25 1558.58 449.53 1525.8 132.68 1538.97 131.62 1575.96 451.52 1715.5 799.87 1986.38 1020.95 1973.05 1260.86 1993.38 1562.13 2003.96 1561.46 1983.73 1260.19 2007.2 1021.02 2151.15 796.46 2188.38 427.04 2154.59 52.59 2170.06 51.35 2202.91 419.13 2171.12 798.16 2023.74 1027.55 1994.41 1259.41 2014.64 1560.69 2025.32 1560.02 2004.99 1258.74 2045.17 1036.81 2188.88 813.75 2221.07 417.59 2182.93 50.3 2196.2 49.23 2238.63 416.18 2211.84 815.25 2066.55 1044.46 2015.67 1257.97 2036 1559.24 2046.68 1558.57 2026.36 1257.3 2095.3 1042.56 2803.61 809.7 2964.29 373.63 2943.32 19.54 2953.9 18.87 2979.47 372.89 2837.83 832.52 2113.6 1053.53 2037.04 1256.52 2057.26 1557.8 2067.95 1557.13 2047.72 1255.85 2128.33 1079.93 2861.82 849.19 2996.73 368.59 2964.28 18.11 2979.81 15.87 3013.94 371.29 2882.67 864.57 2146.55 1103.11 2058.3 1255.08 2078.63 1556.36"/><polyline class="cls-1" points="0.03 289.13 301.31 268.8 903.56 242.66 961.53 237.94 1002.4 173.17 1440.79 136.75 1485.13 159.82 1562.85 153.4 1600.11 88.46 2078.87 56.13 2144.79 75.74 2231.33 66.62 2265.84 40.7 2869.21 0.52 2920.43 66.27 3010.38 60.23 3011.43 75.9 2921.49 82.04 2864.28 14.1 2269.2 53.59 2231.41 86.13 2144.88 95.35 2076.83 69.51 1606.05 101.16 1566.97 168.27 1488.15 174.72 1434.84 149.67 1006.82 185.32 962.73 252.21 904.76 257.03 302.08 279.48 0.81 299.81 1.48 310.39 302.75 290.16 905.96 271.3 968.92 266.1 1011.74 197.16 1433.17 162.03 1487.91 193.74 1573.12 186.66 1612.55 112.54 2076.65 81.43 2144.86 114.87 2231.49 105.74 2272.61 65.28 2858.61 26.4 2922.53 97.72 3012.48 91.67 3013.53 107.34 2923.58 113.39 2852.68 40.22 2275.56 78.28 2235.56 124.91 2148.93 134.13 2073.71 97.54 1618.69 127.94 1574.51 203.63 1489.3 210.7 1431.5 174.3 1017.65 208.76 973.01 280.16 907.06 285.57 303.53 300.84 2.25 321.07 2.92 331.75 304.2 311.42 908.26 299.83 976.31 294.26 1022.5 221.6 1429.87 187.76 1490.69 227.56 1575.9 220.59 1624.71 148.34 2071.84 112.71 2150.17 155.21 2236.7 146.08 2280.45 92.22 2845.4 55.18 2924.63 129.06 3014.57 123.02 3017.62 138.62 2927.68 144.66 2842.21 72.6 2282.35 109.26 2238.97 167.91 2152.44 177.14 2073.14 135.58 1633.38 164.65 1577.29 237.55 1492.19 244.52 1427.76 201.84 1028.93 233.68 977.51 308.52 909.46 314.1 304.87 322.11 3.6 342.43 4.37 353.01 305.64 332.79 910.66 328.37 978.71 322.79 1035.87 246.15 1422.94 215.72 1493.58 261.48 1578.69 254.51 1638.48 181.78 2069.66 153.41 2154.51 196.48 2241.05 187.35 2287.08 127.21 2837.59 92.08 2926.73 160.51 3016.67 154.46 3020.71 169.93 2930.77 175.97 2834.26 108.7 2291.76 143.96 2243.33 206.78 2156.8 216.01 2066.57 168.03 1643.88 195.7 1580.08 271.47 1494.97 278.45 1421.27 228.19 1042.28 258.03 979.8 337.06 911.76 342.64 306.32 343.47 5.04 363.7 5.81 374.38 307.09 354.05 912.96 356.91 981 351.33 1046.66 271.69 1418.31 240.8 1496.36 295.41 1581.57 288.43 1649.56 212.41 2066.76 185.13 2158.45 237.67 2245.09 228.54 2295.24 157.44 2829.76 122.87 2931.82 191.75 3021.76 185.71 3024.81 201.21 2934.86 207.25 2830.63 144.95 2296.45 177.91 2245.15 253.25 2158.62 262.48 2066.5 203.45 1652.29 230.43 1582.96 305.29 1497.76 312.37 1415.2 254.92 1050.44 285.26 982.2 365.6 914.16 371.27 307.76 364.73 6.49 385.06 7.26 395.74 308.53 375.41 915.36 385.54 983.4 379.86 1053.82 299.05 1412.7 269.11 1499.15 329.33 1584.36 322.25 1654.45 249.26 2068.06 222.31 2163.23 282.73 2249.86 273.6 2299.37 195.52 2829.7 161.29 2935.91 223.02 3025.86 216.98 3026.91 232.65 2936.96 238.7 2830.78 180.77 2299.55 215.03 2249.78 297.12 2163.15 306.24 2069.63 241.47 1657.65 266.46 1585.75 339.21 1500.54 346.29 1413.23 284.3 1056.14 313.98 984.5 394.23 916.46 399.81 309.21 386.09 7.93 406.32 8.7 417 309.98 396.77 912.86 414.44 985.7 408.5 1058.34 328.01 1412.92 298.52 1501.93 363.15 1587.14 356.18 1660.98 284.36 2069.87 259.67 2165.62 328.37 2248.96 319.46 2302.14 234.95 2830.1 201.5 2938.11 254.37 3028.05 248.32 3029.1 264 2939.16 270.14 2826.29 218.55 2309.92 251.19 2250.7 334.91 2164.41 342.22 2065.2 280.85 1662.62 299.71 1586.37 371.41 1500.08 378.73 1406.09 311.97 1063.26 340.05 993.15 421.15 906.85 428.46 310.65 407.36 9.38 427.68 10.15 438.36 311.42 418.04 906.32 442.09 992.62 434.77 1066.18 354.86 1402.97 325.89 1499.72 394.35 1586.02 387.04 1663.6 313.68 2061.51 295.58 2164.05 357.84 2250.35 350.53 2317.18 264.34 2820.56 234.96 2940.21 285.81 3030.15 279.77 3031.2 295.44 2941.26 301.49 2817.35 249.08 2323.36 280.94 2251.99 366.08 2165.69 373.4 2056.2 309.68 1669.27 329.69 1587.66 402.59 1501.36 409.9 1395.42 338.86 1070.7 367.01 994.19 448.23 907.89 455.54 312.1 428.72 10.82 448.95 11.49 459.63 312.77 439.4 909.2 467.1 995.49 459.69 1074.35 379.79 1391.74 354 1503 425.36 1589.3 418.04 1673.81 345.05 2053.73 324.77 2167.33 388.85 2253.63 381.53 2331.28 298.47 2816.37 266.72 2942.3 317.16 3032.25 311.12 3033.63 324.98 2943.69 331.02 2813.55 286.33 2336.61 313.6 2254.28 397.12 2167.98 404.44 2050.84 342.29 1678.94 360.38 1589.94 433.63 1503.65 440.94 1385.44 368.42 1079.72 390.31 995.93 472.28 909.63 479.6 313.54 449.98 12.26 470.31"/></g></g></svg>