<svg xmlns="http://www.w3.org/2000/svg" viewBox="0 0 1880.74 914.34"><defs><style>.cls-1{fill:none;stroke:#010101;stroke-miterlimit:10;}</style></defs><g id="Layer_2" data-name="Layer 2"><g id="Layer_1-2" data-name="Layer 1"><polyline class="cls-1" points="0.14 192.28 301.96 181.74 1179.63 114.07 1867.76 76.93 1868.79 97.81 1180.66 134.95 302.33 192.44 0.52 202.98 0.89 213.67 302.71 203.13 1181.69 155.93 1869.82 118.79 1870.85 139.66 1182.72 176.8 303.08 213.82 1.26 224.36 1.64 235.06 303.45 224.52 1183.85 197.68 1871.88 160.54 1872.91 181.52 1184.89 218.65 303.82 235.11 2.01 245.65 2.38 256.34 304.2 245.8 1183.48 241.31 1871.5 204.18 1872.53 225.16 1184.51 262.19 304.57 256.5 2.75 267.04 3.13 277.73 304.94 267.19 1185.54 283.17 1873.66 246.03 1874.69 266.91 1186.57 304.05 305.32 277.88 3.5 288.42 3.87 299.02 305.69 288.48 1187.6 325.02 1875.72 287.88 1876.75 308.76 1188.63 345.9 306.06 299.17 4.24 309.71 4.62 320.4 306.43 309.87 1189 365.2 1877.13 328.06 1878.16 349.04 1190.04 386.17 306.81 320.56 4.99 331.1 5.37 341.79 307.18 331.25 1191.16 407.05 1879.19 369.91 1880.22 390.79 1192.19 427.92 307.55 341.94 5.74 352.49"/><polyline class="cls-1" points="1396.39 914.19 1385.85 612.38 1262.52 504.82 1234.47 59.82 1254.66 56.32 1282.61 501.31 1396.44 612.01 1406.98 913.82 1417.68 913.45 1407.14 611.63 1302.77 496.91 1274.72 51.81 1294.81 48.41 1322.86 493.4 1417.83 611.26 1428.37 913.08 1439.06 912.7 1428.52 610.89 1343.26 487.29 1315.21 42.3 1335.82 39.38 1363.87 484.37 1439.22 610.51 1449.76 912.33 1460.35 911.96 1449.81 610.14 1383.29 496.1 1355.34 51 1375.43 47.6 1403.48 492.59 1460.5 609.77 1471.04 911.59 1481.74 911.21 1471.2 609.4 1423.53 488.09 1395.49 43.09 1415.68 39.59 1443.62 484.58 1481.89 609.02 1492.43 910.84 1503.12 910.47 1492.58 608.65 1464.13 478.56 1436.08 33.47 1456.59 30.55 1484.64 475.65 1503.28 608.28 1513.82 910.09 1524.41 909.72 1513.87 607.91 1502.76 487.32 1474.7 42.23 1494.8 38.83 1522.85 483.82 1524.56 607.53 1535.1 909.35 1545.8 908.98 1535.26 607.16 1542.9 479.32 1514.95 34.32 1535.04 30.82 1563.09 475.81 1545.95 606.79 1556.49 908.6 1567.18 908.23 1556.64 606.41 1595.11 481.5 1565.17 28.16 1580.75 24.52 1610.79 477.94 1567.34 606.04 1577.88 907.86 1588.47 907.49 1577.93 605.67 1626.38 474.3 1596.44 20.97 1612.02 17.32 1642.06 470.65 1588.63 605.3 1599.16 907.11 1609.86 906.74 1599.32 604.92 1657.74 467.1 1627.7 13.77 1643.39 10.12 1673.33 463.45 1610.01 604.55 1620.55 906.37 1631.24 905.99 1620.71 604.18 1692.44 471.99 1662.5 18.66 1678.08 15.02 1708.12 468.34 1631.4 603.8 1641.94 905.62 1652.53 905.25 1641.99 603.43 1723.7 464.8 1693.77 11.47 1709.45 7.82 1739.39 461.15 1652.69 603.06 1663.23 904.88 1673.92 904.5 1663.38 602.69 1755.07 457.6 1725.03 4.27 1740.71 0.62 1770.65 453.95 1674.07 602.31 1684.61 904.13"/></g></g></svg>